<?xml version="1.0" encoding="UTF-8"?>
<svg id="eeg" xmlns="http://www.w3.org/2000/svg" version="1.1" viewBox="0 0 17.7 19.8">
  <!-- Generator: Adobe Illustrator 30.0.0, SVG Export Plug-In . SVG Version: 2.1.1 Build 123)  -->
  <defs>
    <style>
      .st0 {
        fill: #e9ebe5;
      }
    </style>
  </defs>
  <path class="st0" d="M-37.03,11.92c-.5.3-1,.5-1.6.6.1,0,.1-.1.2-.1.8-.5,1.5-1,2.1-1.7.6-.5,1.1-1,1.5-1.7.1-.1.1-.2.2-.3-.4.2-.7.4-1.2.5.2-.3.2-.4.2-.7-.6.4-1.2.6-1.9.7.5-.4,1-.8,1.5-1.2.5-.4,1-.9,1.4-1.4-.2,0-.4.1-.7.1.3-.3.6-.5.7-.9-.2.4-.6.5-1,.6h0c.5-.4.9-.9,1.2-1.4.2-.4.5-.8.7-1.2,0,0,0-.1.1-.1.1.6.5,1.2.8,1.7.4.5.8,1,1.2,1.5l.1.1c-.2,0-.3,0-.4-.1-.1,0-.2-.1-.4-.1,0,.1.1.2.1.2.2.2.4.5.6.7.4.4.8.7,1.2,1.1l.1.1c-.6-.1-1.1-.3-1.6-.5q0,.1.1.1c.2.4.6.7.9,1,.6.6,1.4,1.1,2.1,1.5,0,0,.1,0,.1.1h0l-.1.1c-.3.2-.6.3-.9.3-.4.1-.7.1-1.1,0q0,.1.2.4l.3.3.3.3h-.4c-.4-.1-.7-.3-1-.6l-.2-.2v.2c.2.5.4.9.7,1.3.6.8,1.2,1.4,2,2l.1.1c-.2.1-.5.1-.7,0-.2,0-.4-.1-.7-.2v.2c.1.3.2.5.4.8,0,0,.1.1.1.2-.8-.1-1.4-.5-2.1-.8,0,.1.1.2.1.3.1.3.3.6.5.8.5.7,1.1,1.3,1.8,1.9l.3.3c-.2.1-.5,0-1.1-.3,0,.2,0,.3.1.5-.3-.2-.6-.5-.9-.8,0,.4.1.7.4,1h-.2c-.4-.1-.8-.4-1.1-.7s-.5-.6-.8-.9l-.1-.1c0,.9.1,1.7.2,2.6.1.9.3,1.7.6,2.5h-3.2c.2-.6.3-1.1.4-1.7.1-.6.2-1.1.2-1.7.1-.6.1-1.1.1-1.7-.5.7-1,1.3-1.7,1.8.1-.4.1-.7,0-1.1-.2.6-.3,1.1-.8,1.4.3-.5.4-1,.4-1.6-.1,0-.1.1-.1.1-.2.2-.4.4-.6.5s-.4.2-.6.2h-.3l.1-.1c.6-.5,1.2-1.1,1.7-1.8.4-.5.7-1,1-1.6.2-.4.3-.9.3-1.3,0-.2,0-.4-.1-.7-.2.7-.5,1.3-.9,1.8.1-.3.1-.7-.1-1-.1.1-.2.3-.2.4-.1.1-.2.2-.3.4-.1.1-.2.2-.3.3-.1.1-.2.2-.3.3h0c0-.1.1-.2.1-.3s.1-.2.1-.3v-.4c-.5.9-1,1.7-1.7,2.4.2-.5.4-1.1.5-1.7-.3,0-.4.2-.5.3h0c.4-.5.7-1,.9-1.6-.3.1-.6.2-1,.2.7-.7,1.3-1.4,1.9-2.2Z"/>
  <path class="st0" d="M7.5,5.44c.52-.54,1.25-.88,2.06-.88h0c1.07.01,2,.61,2.49,1.48h0c.41-.18.88-.29,1.39-.29h.04,0c1.93.02,3.49,1.6,3.49,3.53s-1.56,3.52-3.5,3.53h0c-.25,0-.48-.03-.72-.07h.02c-.44.8-1.27,1.32-2.23,1.32h0,0c-.41,0-.79-.1-1.13-.26h.02c-.46,1.06-1.49,1.79-2.69,1.79s-2.32-.79-2.74-1.89v-.02c-.16.03-.33.05-.51.05-.02,0-.04,0-.06,0h0c-1.5,0-2.71-1.22-2.71-2.72v-.02h0s0,0,0,0c0-1.01.54-1.89,1.35-2.37h.01c-.17-.37-.26-.8-.26-1.25h0s0,0,0,0c0-1.74,1.41-3.15,3.15-3.15h.01c1.01,0,1.92.47,2.5,1.21h0s.01.02.01.02Z"/>
</svg>