<?xml version="1.0" encoding="UTF-8"?>
<svg id="contact" xmlns="http://www.w3.org/2000/svg" version="1.1" viewBox="0 0 19.92 16.64">
  <!-- Generator: Adobe Illustrator 30.0.0, SVG Export Plug-In . SVG Version: 2.1.1 Build 123)  -->
  <defs>
    <style>
      .st0 {
        fill: #c7c7c7;
      }
    </style>
  </defs>
  <g id="google">
    <path class="st0" d="M10.11,6.87v2.96h0s4.38,0,4.38,0c-.21,1.25-1.33,3.35-4.37,3.35-2.63,0-4.77-2.18-4.77-4.86s2.14-4.86,4.77-4.86c1.49,0,2.49.64,3.06,1.18l2.26-2.19c-1.37-1.29-3.17-2.07-5.31-2.07C5.73.38,2.18,3.94,2.18,8.32s3.56,7.94,7.94,7.94,7.63-3.23,7.63-7.76c0-.66-.09-1.13-.2-1.63,0,0-7.44,0-7.44,0Z"/>
  </g>
</svg>